<svg width="18" height="18" viewBox="0 0 18 18" fill="#ffffff" stroke="#ffffff" xmlns="http://www.w3.org/2000/svg">
<path d="M13.0406 16.5063C7.38544 15.0666 2.93352 10.6147 1.49383 4.95952C0.948815 2.81867 2.79098 0.999999 5.00012 0.999999L6.00012 1C6.55241 1 6.99486 1.44883 7.04934 1.99842C7.14138 2.92696 7.36044 3.81815 7.68889 4.65437L6.16961 6.17366C7.35213 8.6447 9.35542 10.648 11.8265 11.8305L13.3457 10.3112C14.182 10.6397 15.0732 10.8587 16.0017 10.9508C16.5513 11.0053 17.0001 11.4477 17.0001 12L17.0001 13C17.0001 15.2091 15.1815 17.0513 13.0406 16.5063Z"  stroke-width="1" stroke-linecap="round" stroke-linejoin="round"/>
</svg>
